<svg width="24" height="24" viewBox="0 0 24 24" fill="none" xmlns="http://www.w3.org/2000/svg">
  <path d="M22.56 12.25C22.56 11.47 22.49 10.72 22.36 10H12V14.255H17.92C17.665 15.63 16.89 16.795 15.725 17.525V20.335H19.28C21.36 18.42 22.56 15.6 22.56 12.25Z" fill="#4285F4"/>
  <path d="M12 23C14.97 23 17.43 22.015 19.285 20.335L15.73 17.525C14.785 18.155 13.54 18.53 12.005 18.53C9.045 18.53 6.555 16.54 5.695 13.89H2.02V16.78C3.86 20.425 7.615 23 12 23Z" fill="#34A853"/>
  <path d="M5.69 13.89C5.465 13.21 5.335 12.485 5.335 11.75C5.335 11.015 5.465 10.29 5.69 9.61V6.72H2.02C1.31 8.24 0.909998 9.94 0.909998 11.75C0.909998 13.56 1.31 15.26 2.02 16.78L5.69 13.89Z" fill="#FBBC05"/>
  <path d="M12 5.07C13.625 5.07 15.08 5.62 16.255 6.725L19.4 3.61C17.425 1.77 14.965 0.609998 12 0.609998C7.615 0.609998 3.86 3.185 2.02 6.83L5.69 9.72C6.555 7.07 9.045 5.07 12 5.07Z" fill="#EA4335"/>
</svg> 