<svg width="24" height="24" viewBox="0 0 24 24" fill="none" xmlns="http://www.w3.org/2000/svg">
  <path d="M21.7975 2L13.1997 8.2495L14.6572 4.64269L21.7975 2Z" fill="#E17726" stroke="#E17726" stroke-width="0.25" stroke-linecap="round" stroke-linejoin="round"/>
  <path d="M2.20166 2L10.7346 8.31035L9.34276 4.64269L2.20166 2Z" fill="#E27625" stroke="#E27625" stroke-width="0.25" stroke-linecap="round" stroke-linejoin="round"/>
  <path d="M18.8596 16.5174L16.6422 19.8254L21.3565 21.1201L22.7491 16.5883L18.8596 16.5174Z" fill="#E27625" stroke="#E27625" stroke-width="0.25" stroke-linecap="round" stroke-linejoin="round"/>
  <path d="M1.26074 16.5883L2.64414 21.1201L7.3499 19.8254L5.14168 16.5174L1.26074 16.5883Z" fill="#E27625" stroke="#E27625" stroke-width="0.25" stroke-linecap="round" stroke-linejoin="round"/>
  <path d="M7.10765 10.7373L5.86816 12.7791L10.5266 12.9847L10.3736 7.93555L7.10765 10.7373Z" fill="#E27625" stroke="#E27625" stroke-width="0.25" stroke-linecap="round" stroke-linejoin="round"/>
  <path d="M16.8923 10.7373L13.5819 7.8736L13.1997 12.9847L17.8582 12.7791L16.8923 10.7373Z" fill="#E27625" stroke="#E27625" stroke-width="0.25" stroke-linecap="round" stroke-linejoin="round"/>
  <path d="M7.3501 19.8254L10.2323 18.4601L7.75903 16.6211L7.3501 19.8254Z" fill="#E27625" stroke="#E27625" stroke-width="0.25" stroke-linecap="round" stroke-linejoin="round"/>
  <path d="M13.7676 18.4601L16.6421 19.8254L16.2409 16.6211L13.7676 18.4601Z" fill="#E27625" stroke="#E27625" stroke-width="0.25" stroke-linecap="round" stroke-linejoin="round"/>
</svg>















