<svg width="24" height="24" viewBox="0 0 24 24" fill="none" xmlns="http://www.w3.org/2000/svg">
  <path d="M5.94074 8.69099C9.14384 5.6139 14.1877 5.6139 17.3907 8.69099L17.7596 9.04918C17.9153 9.19966 17.9153 9.44323 17.7596 9.59371L16.4584 10.8505C16.3805 10.9257 16.2539 10.9257 16.176 10.8505L15.6724 10.3633C13.5036 8.27581 9.82788 8.27581 7.65906 10.3633L7.12089 10.8833C7.04294 10.9584 6.91634 10.9584 6.83839 10.8833L5.53716 9.62645C5.38155 9.47597 5.38155 9.2324 5.53716 9.08192L5.94074 8.69099ZM19.9287 11.1477L21.1021 12.2794C21.2577 12.4299 21.2577 12.6734 21.1021 12.8239L15.9638 17.7984C15.8079 17.9489 15.5547 17.9489 15.3988 17.7984C15.3988 17.7984 15.3988 17.7984 15.3988 17.7984L11.892 14.4219C11.853 14.3843 11.7897 14.3843 11.7507 14.4219C11.7507 14.4219 11.7507 14.4219 11.7507 14.4219L8.24399 17.7984C8.08807 17.9489 7.83492 17.9489 7.67901 17.7984C7.679 17.7984 7.67899 17.7984 7.67898 17.7984L2.5379 12.8239C2.38229 12.6734 2.38229 12.4299 2.5379 12.2794L3.71135 11.1477C3.86727 10.9972 4.12043 10.9972 4.27634 11.1477L7.78306 14.5242C7.82203 14.5618 7.88538 14.5618 7.92434 14.5242C7.92435 14.5242 7.92435 14.5242 7.92435 14.5242L11.4312 11.1477C11.5871 10.9972 11.8402 10.9972 11.9961 11.1477C11.9961 11.1477 11.9961 11.1477 11.9961 11.1477L15.5028 14.5242C15.5418 14.5618 15.6051 14.5618 15.6441 14.5242L19.1508 11.1477C19.3067 10.9972 19.5599 10.9972 19.7158 11.1477C19.7158 11.1477 19.7158 11.1477 19.9287 11.1477Z" fill="#3396FF"/>
</svg>















